<svg width="26" height="26" viewBox="0 0 26 26" fill="none" xmlns="http://www.w3.org/2000/svg">
<g clip-path="url(#clip0_34_478)">
<path d="M17.8798 1.55083L15.5195 3.91108L21.859 10.2506L24.2193 7.89034C25.4384 6.6712 25.4384 4.6962 24.2193 3.47706L22.2979 1.55083C21.0788 0.33169 19.1038 0.33169 17.8846 1.55083H17.8798ZM14.4174 5.01318L3.05019 16.3853C2.54303 16.8924 2.17241 17.5215 1.9676 18.2091L0.241299 24.0756C0.119385 24.4901 0.231545 24.9339 0.533891 25.2362C0.836237 25.5386 1.28 25.6507 1.68963 25.5337L7.55612 23.8074C8.24371 23.6026 8.87278 23.232 9.37995 22.7248L20.7569 11.3527L14.4174 5.01318Z" fill="white"/>
</g>
<defs>
<clipPath id="clip0_34_478">
<rect width="24.9679" height="24.9679" fill="white" transform="translate(0.192627 0.609619)"/>
</clipPath>
</defs>
</svg>
