<svg width="22" height="21" viewBox="0 0 22 21" fill="none" xmlns="http://www.w3.org/2000/svg">
<g clip-path="url(#clip0_34_68)">
<path d="M2.49367 12.3211L10.0231 19.2404C10.3356 19.5275 10.7482 19.6875 11.1773 19.6875C11.6065 19.6875 12.019 19.5275 12.3316 19.2404L19.861 12.3211C21.1277 11.1603 21.8444 9.53201 21.8444 7.82986V7.59197C21.8444 4.72498 19.7402 2.28044 16.8692 1.80876C14.9692 1.49705 13.0358 2.10818 11.6774 3.44529L11.1773 3.93748L10.6773 3.44529C9.31894 2.10818 7.38553 1.49705 5.48545 1.80876C2.6145 2.28044 0.510254 4.72498 0.510254 7.59197V7.82986C0.510254 9.53201 1.22695 11.1603 2.49367 12.3211Z" fill="#093CA0"/>
</g>
<defs>
<clipPath id="clip0_34_68">
<rect width="21.3342" height="21" fill="white" transform="translate(0.510254)"/>
</clipPath>
</defs>
</svg>
