<svg width="19" height="19" viewBox="0 0 19 19" fill="none" xmlns="http://www.w3.org/2000/svg">
<g clip-path="url(#clip0_34_173)">
<path d="M15.3816 8.03538C15.3816 9.67044 14.8508 11.1808 13.9567 12.4062L18.4664 16.9195C18.9117 17.3648 18.9117 18.0879 18.4664 18.5332C18.0212 18.9785 17.298 18.9785 16.8527 18.5332L12.343 14.0199C11.1176 14.9176 9.6072 15.4448 7.97215 15.4448C3.87916 15.4448 0.562744 12.1284 0.562744 8.03538C0.562744 3.9424 3.87916 0.625977 7.97215 0.625977C12.0651 0.625977 15.3816 3.9424 15.3816 8.03538ZM7.97215 13.165C10.8041 13.165 13.1017 10.8673 13.1017 8.03538C13.1017 5.20342 10.8041 2.90579 7.97215 2.90579C5.14019 2.90579 2.84256 5.20342 2.84256 8.03538C2.84256 10.8673 5.14019 13.165 7.97215 13.165Z" fill="#2957AE"/>
</g>
<defs>
<clipPath id="clip0_34_173">
<rect width="18.2385" height="18.2385" fill="white" transform="translate(0.562744 0.625977)"/>
</clipPath>
</defs>
</svg>
