<svg width="65" height="99" viewBox="0 0 65 99" fill="none" xmlns="http://www.w3.org/2000/svg">
<g filter="url(#filter0_d_743_431)">
<path d="M59.9914 28.7377C59.4353 43.4329 43.7953 73.2551 35.8588 90.7197C22.1672 67.998 3.84011 41.3354 4.39615 26.6401C4.95219 11.9448 17.8484 0.501542 33.2006 1.08077C48.5528 1.66 60.5474 14.0424 59.9914 28.7377Z" fill="#487EEB"/>
<path d="M58.9921 28.7C58.8583 32.235 57.8104 36.75 56.1511 41.8571C54.4964 46.9499 52.2549 52.5689 49.7752 58.2927C46.685 65.4255 43.2541 72.6578 40.1401 79.2219C38.5624 82.5478 37.066 85.7021 35.7365 88.5851C33.8201 85.4273 31.8309 82.2092 29.8281 78.9693C24.8911 70.9824 19.8721 62.8631 15.6613 55.1889C12.56 49.5368 9.9183 44.1627 8.08804 39.3042C6.25222 34.4311 5.26384 30.1559 5.39544 26.6778C5.92906 12.5752 18.3208 1.52008 33.1628 2.08006C48.0047 2.64004 59.5257 14.5973 58.9921 28.7Z" stroke="#3D3D3D" stroke-width="2"/>
</g>
<ellipse rx="21.4496" ry="21.4313" transform="matrix(0.999811 0.0194364 -0.0195139 0.99981 32.0414 28.6838)" fill="white"/>
<path d="M43.3674 17.8027C43.6989 17.8027 44.0169 17.9344 44.2513 18.1689C44.4857 18.4033 44.6174 18.7212 44.6174 19.0527V25.9277C43.7886 25.9277 42.9937 26.2569 42.4077 26.843C41.8216 27.429 41.4924 28.2239 41.4924 29.0527C41.4924 29.8815 41.8216 30.6764 42.4077 31.2624C42.9937 31.8485 43.7886 32.1777 44.6174 32.1777V39.0527C44.6174 39.3842 44.4857 39.7022 44.2513 39.9366C44.0169 40.171 43.6989 40.3027 43.3674 40.3027H20.8674C20.5359 40.3027 20.2179 40.171 19.9835 39.9366C19.7491 39.7022 19.6174 39.3842 19.6174 39.0527V32.1777C20.4462 32.1777 21.241 31.8485 21.8271 31.2624C22.4131 30.6764 22.7424 29.8815 22.7424 29.0527C22.7424 28.2239 22.4131 27.429 21.8271 26.843C21.241 26.2569 20.4462 25.9277 19.6174 25.9277V19.0527C19.6174 18.7212 19.7491 18.4033 19.9835 18.1689C20.2179 17.9344 20.5359 17.8027 20.8674 17.8027H43.3674Z" fill="#093CA0"/>
<path d="M32.1174 22.8027C32.9458 22.8027 33.6174 22.1312 33.6174 21.3027C33.6174 20.4743 32.9458 19.8027 32.1174 19.8027C31.289 19.8027 30.6174 20.4743 30.6174 21.3027C30.6174 22.1312 31.289 22.8027 32.1174 22.8027Z" fill="#F0BF10"/>
<path d="M32.1174 38.3027C32.9458 38.3027 33.6174 37.6311 33.6174 36.8027C33.6174 35.9743 32.9458 35.3027 32.1174 35.3027C31.289 35.3027 30.6174 35.9743 30.6174 36.8027C30.6174 37.6311 31.289 38.3027 32.1174 38.3027Z" fill="#F0BF10"/>
<path d="M33.2074 25.8027H31.0674V32.8027H33.2074V25.8027Z" fill="white"/>
<defs>
<filter id="filter0_d_743_431" x="0.383789" y="1.05969" width="63.6262" height="97.66" filterUnits="userSpaceOnUse" color-interpolation-filters="sRGB">
<feFlood flood-opacity="0" result="BackgroundImageFix"/>
<feColorMatrix in="SourceAlpha" type="matrix" values="0 0 0 0 0 0 0 0 0 0 0 0 0 0 0 0 0 0 127 0" result="hardAlpha"/>
<feOffset dy="4"/>
<feGaussianBlur stdDeviation="2"/>
<feComposite in2="hardAlpha" operator="out"/>
<feColorMatrix type="matrix" values="0 0 0 0 0 0 0 0 0 0 0 0 0 0 0 0 0 0 0.25 0"/>
<feBlend mode="normal" in2="BackgroundImageFix" result="effect1_dropShadow_743_431"/>
<feBlend mode="normal" in="SourceGraphic" in2="effect1_dropShadow_743_431" result="shape"/>
</filter>
</defs>
</svg>
