<svg width="81" height="80" viewBox="0 0 81 80" fill="none" xmlns="http://www.w3.org/2000/svg">
<ellipse cx="40.4598" cy="40" rx="40.4598" ry="40" fill="white"/>
<path d="M40.0511 16.9697C43.1944 16.9697 46.209 18.2042 48.4316 20.4016C50.6543 22.599 51.9029 25.5793 51.9029 28.6869C51.9029 31.7945 50.6543 34.7748 48.4316 36.9722C46.209 39.1696 43.1944 40.4041 40.0511 40.4041C36.9078 40.4041 33.8932 39.1696 31.6706 36.9722C29.4479 34.7748 28.1992 31.7945 28.1992 28.6869C28.1992 25.5793 29.4479 22.599 31.6706 20.4016C33.8932 18.2042 36.9078 16.9697 40.0511 16.9697M40.0511 46.2627C53.1474 46.2627 63.7548 51.5061 63.7548 57.9798V63.8384H16.3474V57.9798C16.3474 51.5061 26.9548 46.2627 40.0511 46.2627Z" fill="#B3B3B3"/>
</svg>
