<svg  viewBox="0 0 25 24" fill="none" xmlns="http://www.w3.org/2000/svg">
<path d="M23.7913 11.7647C23.7913 17.9764 18.6483 23.0294 12.2823 23.0294C5.91635 23.0294 0.773346 17.9764 0.773346 11.7647C0.773346 5.55302 5.91635 0.5 12.2823 0.5C18.6483 0.5 23.7913 5.55302 23.7913 11.7647Z" fill="white" stroke="#A4A4A4"/>
<g clip-path="url(#clip0_40_2277)">
<path d="M19.1007 7.39887H17.1009C16.9211 6.53464 16.1393 5.88232 15.2048 5.88232C14.2703 5.88232 13.4885 6.53464 13.3087 7.39887H6.66484C6.45111 7.39887 6.27783 7.56862 6.27783 7.778C6.27783 7.98739 6.45111 8.15714 6.66484 8.15714H13.3087C13.4885 9.02137 14.2703 9.67368 15.2048 9.67368C16.1393 9.67368 16.9211 9.02137 17.1009 8.15714H19.1007C19.3144 8.15714 19.4877 7.98739 19.4877 7.778C19.4877 7.56862 19.3144 7.39887 19.1007 7.39887ZM15.2048 8.91541C14.5647 8.91541 14.044 8.40535 14.0438 7.77833C14.0438 7.77823 14.0438 7.77813 14.0438 7.778C14.0438 7.77788 14.0438 7.77778 14.0438 7.77768C14.044 7.15066 14.5647 6.6406 15.2048 6.6406C15.845 6.6406 16.3658 7.15084 16.3658 7.778C16.3658 8.40517 15.845 8.91541 15.2048 8.91541Z" fill="#A4A4A4"/>
<path d="M19.1007 11.9738H12.4568C12.277 11.1096 11.4952 10.4573 10.5607 10.4573C9.62622 10.4573 8.84441 11.1096 8.66461 11.9738H6.66484C6.45111 11.9738 6.27783 12.1436 6.27783 12.353C6.27783 12.5623 6.45111 12.7321 6.66484 12.7321H8.66461C8.84439 13.5963 9.62622 14.2486 10.5607 14.2486C11.4952 14.2486 12.277 13.5963 12.4568 12.7321H19.1007C19.3144 12.7321 19.4877 12.5623 19.4877 12.353C19.4877 12.1436 19.3144 11.9738 19.1007 11.9738ZM10.5607 13.4904C9.92063 13.4904 9.39987 12.9803 9.39969 12.3533C9.39969 12.3532 9.39972 12.3531 9.39972 12.353C9.39972 12.3528 9.39969 12.3527 9.39969 12.3526C9.39987 11.7256 9.92063 11.2155 10.5607 11.2155C11.2009 11.2155 11.7217 11.7258 11.7217 12.353C11.7217 12.9801 11.2009 13.4904 10.5607 13.4904Z" fill="#A4A4A4"/>
<path d="M19.1007 16.5488H17.1009C16.9211 15.6845 16.1393 15.0322 15.2048 15.0322C14.2703 15.0322 13.4885 15.6845 13.3087 16.5488H6.66484C6.45111 16.5488 6.27783 16.7185 6.27783 16.9279C6.27783 17.1373 6.45111 17.307 6.66484 17.307H13.3087C13.4885 18.1713 14.2703 18.8236 15.2048 18.8236C16.1393 18.8236 16.9211 18.1713 17.1009 17.307H19.1007C19.3144 17.307 19.4877 17.1373 19.4877 16.9279C19.4877 16.7185 19.3144 16.5488 19.1007 16.5488ZM15.2048 18.0653C14.5647 18.0653 14.044 17.5553 14.0438 16.9282C14.0438 16.9281 14.0438 16.928 14.0438 16.9279C14.0438 16.9278 14.0438 16.9277 14.0438 16.9276C14.044 16.3006 14.5647 15.7905 15.2048 15.7905C15.845 15.7905 16.3658 16.3007 16.3658 16.9279C16.3658 17.5551 15.845 18.0653 15.2048 18.0653Z" fill="#A4A4A4"/>
</g>
<defs>
<clipPath id="clip0_40_2277">
<rect width="13.2099" height="12.9412" fill="white" transform="translate(6.27783 5.88232)"/>
</clipPath>
</defs>
</svg>
