<svg viewBox="0 0 15 15" fill="none" xmlns="http://www.w3.org/2000/svg">
<g clip-path="url(#clip0_1_1147)">
<path d="M10.0172 1.71632C7.72892 -0.571945 4.00459 -0.571945 1.71632 1.71632C-0.571455 4.00509 -0.571455 7.72892 1.71632 10.0177C3.75408 12.055 6.9278 12.2732 9.21458 10.6824C9.2627 10.9101 9.37282 11.1273 9.54991 11.3044L12.8824 14.6369C13.368 15.1215 14.1527 15.1215 14.6359 14.6369C15.121 14.1518 15.121 13.367 14.6359 12.8834L11.3034 9.54992C11.1273 9.37432 10.9096 9.2637 10.6819 9.21558C12.2737 6.9283 12.0555 3.75508 10.0172 1.71632ZM8.96507 8.96557C7.25668 10.674 4.47633 10.674 2.76844 8.96557C1.06104 7.25718 1.06104 4.47733 2.76844 2.76894C4.47633 1.06104 7.25668 1.06104 8.96507 2.76894C10.6735 4.47733 10.6735 7.25718 8.96507 8.96557Z" fill="#94B1F1"/>
</g>
<defs>
<clipPath id="clip0_1_1147">
<rect width="15" height="15" fill="white"/>
</clipPath>
</defs>
</svg>
