<svg width="24" height="24" viewBox="0 0 24 24" fill="none" xmlns="http://www.w3.org/2000/svg">
<g clip-path="url(#clip0_1_1622)">
<path d="M9.89038 7.2655C4.46258 7.2655 -1.16713e-05 10.998 -1.16713e-05 15.5861C-1.16713e-05 17.4201 0.711363 19.284 2.01594 20.7286L0.173707 22.8338C-0.00755855 23.0412 -0.0515273 23.3358 0.0631758 23.587C0.177176 23.8383 0.427113 23.9997 0.703113 23.9997H10.5935C14.6011 23.9997 19.7808 20.5488 19.7808 15.5861C19.7808 10.998 15.3182 7.2655 9.89038 7.2655ZM5.62485 16.8749C4.84963 16.8749 4.21864 16.2438 4.21864 15.4687C4.21864 14.6935 4.84968 14.0625 5.62485 14.0625C6.40002 14.0625 7.03105 14.6935 7.03105 15.4687C7.0311 16.2438 6.40007 16.8749 5.62485 16.8749ZM9.89038 16.8749C9.11516 16.8749 8.48417 16.2438 8.48417 15.4687C8.48417 14.6935 9.11521 14.0625 9.89038 14.0625C10.6656 14.0625 11.2966 14.6935 11.2966 15.4687C11.2966 16.2438 10.6656 16.8749 9.89038 16.8749ZM14.1559 16.8749C13.3807 16.8749 12.7497 16.2438 12.7497 15.4687C12.7497 14.6935 13.3807 14.0625 14.1559 14.0625C14.9311 14.0625 15.5621 14.6935 15.5621 15.4687C15.5621 16.2438 14.9311 16.8749 14.1559 16.8749Z" fill="#9F9F9F"/>
<path d="M23.8299 14.3075L22.1745 12.376C23.3561 11.0426 23.9995 9.41663 23.9995 7.73443C23.9995 3.46979 19.899 0.000244141 14.8591 0.000244141C10.3017 0.000244141 6.42977 2.84035 5.74609 6.53696C7.01772 6.10487 8.4438 5.85924 9.8905 5.85924C16.0477 5.85924 21.1063 10.1598 21.1803 15.4686H23.2964C23.897 15.4687 24.2196 14.7614 23.8299 14.3075Z" fill="#9F9F9F"/>
</g>
<defs>
<clipPath id="clip0_1_1622">
<rect width="24" height="24" fill="white"/>
</clipPath>
</defs>
</svg>
