<svg width="24" height="24" viewBox="0 0 24 24" fill="none" xmlns="http://www.w3.org/2000/svg">
<g clip-path="url(#clip0_1_1593)">
<path d="M23.9424 23.0163L19.7073 13.1356C19.596 12.8761 19.3408 12.7078 19.0586 12.7078H16.369C17.4575 10.8061 18.3527 8.70129 18.3527 6.92041C18.3527 -2.25062 5.6474 -2.36249 5.6474 6.92041C5.6474 8.70129 6.5426 10.8061 7.63116 12.7078H4.94153C4.65918 12.7078 4.40393 12.8761 4.29278 13.1356L0.0577368 23.0163C-0.141482 23.481 0.199827 24.0001 0.70648 24.0001H23.2936C23.7992 24.0001 24.142 23.4821 23.9424 23.0163ZM18.593 14.1194L20.6827 18.9947C20.6174 19.0288 13.8157 22.5607 13.767 22.5886H12.2895C12.2522 22.5468 12.5697 22.866 7.96936 18.2662L10.5246 16.9584C11.0455 17.6233 11.4105 18.0457 11.4674 18.1113C11.7487 18.435 12.2516 18.4344 12.5325 18.1113C12.6506 17.9754 14.0895 16.3082 15.5069 14.1194H18.593ZM12.0001 1.41534C14.3797 1.41534 16.941 3.13818 16.941 6.92041C16.941 10.1006 13.3761 14.8333 12.0001 16.5413C10.624 14.8331 7.05914 10.1006 7.05914 6.92041C7.05914 3.11767 9.54059 1.41534 12.0001 1.41534ZM5.40698 14.1194C8.82629 14.1194 8.43774 14.1199 8.49249 14.1183C8.89001 14.7322 9.28918 15.3052 9.66052 15.8149L3.28076 19.0801L5.40698 14.1194ZM2.41009 21.1114L6.64899 18.942L10.2961 22.5886H1.77691L2.41009 21.1114ZM16.8264 22.5886L21.2405 20.2957L22.2232 22.5886H16.8264Z" fill="#A4A4A4"/>
<path d="M14.1174 6.35571C14.1174 5.18823 13.1675 4.23828 12 4.23828C10.8323 4.23828 9.88239 5.18823 9.88239 6.35571C9.88239 7.52319 10.8323 8.47296 12 8.47296C13.1675 8.47296 14.1174 7.52319 14.1174 6.35571ZM11.2941 6.35571C11.2941 5.96643 11.6107 5.64984 12 5.64984C12.3891 5.64984 12.7059 5.96643 12.7059 6.35571C12.7059 6.74481 12.3891 7.0614 12 7.0614C11.6107 7.0614 11.2941 6.74481 11.2941 6.35571Z" fill="#A4A4A4"/>
</g>
<defs>
<clipPath id="clip0_1_1593">
<rect width="24" height="24" fill="white"/>
</clipPath>
</defs>
</svg>
