<svg width="30" height="30" viewBox="0 0 30 30" fill="none" xmlns="http://www.w3.org/2000/svg">
<path d="M26.75 3C27.0815 3 27.3995 3.1317 27.6339 3.36612C27.8683 3.60054 28 3.91848 28 4.25V11.125C27.1712 11.125 26.3763 11.4542 25.7903 12.0403C25.2042 12.6263 24.875 13.4212 24.875 14.25C24.875 15.0788 25.2042 15.8737 25.7903 16.4597C26.3763 17.0458 27.1712 17.375 28 17.375V24.25C28 24.5815 27.8683 24.8995 27.6339 25.1339C27.3995 25.3683 27.0815 25.5 26.75 25.5H4.25C3.91848 25.5 3.60054 25.3683 3.36612 25.1339C3.1317 24.8995 3 24.5815 3 24.25V17.375C3.8288 17.375 4.62366 17.0458 5.20971 16.4597C5.79576 15.8737 6.125 15.0788 6.125 14.25C6.125 13.4212 5.79576 12.6263 5.20971 12.0403C4.62366 11.4542 3.8288 11.125 3 11.125V4.25C3 3.91848 3.1317 3.60054 3.36612 3.36612C3.60054 3.1317 3.91848 3 4.25 3H26.75Z" fill="#093CA0"/>
<path d="M15.5 8C16.3284 8 17 7.32843 17 6.5C17 5.67157 16.3284 5 15.5 5C14.6716 5 14 5.67157 14 6.5C14 7.32843 14.6716 8 15.5 8Z" fill="#F0BF10"/>
<path d="M15.5 23.5C16.3284 23.5 17 22.8284 17 22C17 21.1716 16.3284 20.5 15.5 20.5C14.6716 20.5 14 21.1716 14 22C14 22.8284 14.6716 23.5 15.5 23.5Z" fill="#F0BF10"/>
<path d="M16.59 11H14.45V18H16.59V11Z" fill="white"/>
</svg>
