<svg width="155" height="32" viewBox="0 0 155 32" fill="none" xmlns="http://www.w3.org/2000/svg">
<path d="M26.75 4C27.0815 4 27.3995 4.1317 27.6339 4.36612C27.8683 4.60054 28 4.91848 28 5.25V12.125C27.1712 12.125 26.3763 12.4542 25.7903 13.0403C25.2042 13.6263 24.875 14.4212 24.875 15.25C24.875 16.0788 25.2042 16.8737 25.7903 17.4597C26.3763 18.0458 27.1712 18.375 28 18.375V25.25C28 25.5815 27.8683 25.8995 27.6339 26.1339C27.3995 26.3683 27.0815 26.5 26.75 26.5H4.25C3.91848 26.5 3.60054 26.3683 3.36612 26.1339C3.1317 25.8995 3 25.5815 3 25.25V18.375C3.8288 18.375 4.62366 18.0458 5.20971 17.4597C5.79576 16.8737 6.125 16.0788 6.125 15.25C6.125 14.4212 5.79576 13.6263 5.20971 13.0403C4.62366 12.4542 3.8288 12.125 3 12.125V5.25C3 4.91848 3.1317 4.60054 3.36612 4.36612C3.60054 4.1317 3.91848 4 4.25 4H26.75Z" fill="#5483E8"/>
<path d="M15.5 9C16.3284 9 17 8.32843 17 7.5C17 6.67157 16.3284 6 15.5 6C14.6716 6 14 6.67157 14 7.5C14 8.32843 14.6716 9 15.5 9Z" fill="#EBBB82"/>
<path d="M15.5 24.5C16.3284 24.5 17 23.8284 17 23C17 22.1716 16.3284 21.5 15.5 21.5C14.6716 21.5 14 22.1716 14 23C14 23.8284 14.6716 24.5 15.5 24.5Z" fill="#EBBB82"/>
<path d="M16.59 12H14.45V19H16.59V12Z" fill="white"/>
<path d="M37.16 25V8.86001H41.84V25H37.16ZM39.5 6.61001C38.64 6.61001 37.94 6.36001 37.4 5.86001C36.86 5.36001 36.59 4.74001 36.59 4.00001C36.59 3.26001 36.86 2.64001 37.4 2.14001C37.94 1.64001 38.64 1.39001 39.5 1.39001C40.36 1.39001 41.06 1.63001 41.6 2.11001C42.14 2.57001 42.41 3.17001 42.41 3.91001C42.41 4.69001 42.14 5.34001 41.6 5.86001C41.08 6.36001 40.38 6.61001 39.5 6.61001ZM55.0934 8.62001C56.3734 8.62001 57.5134 8.88001 58.5134 9.40001C59.5334 9.90001 60.3334 10.68 60.9134 11.74C61.4934 12.78 61.7834 14.12 61.7834 15.76V25H57.1034V16.48C57.1034 15.18 56.8134 14.22 56.2334 13.6C55.6734 12.98 54.8734 12.67 53.8334 12.67C53.0934 12.67 52.4234 12.83 51.8234 13.15C51.2434 13.45 50.7834 13.92 50.4434 14.56C50.1234 15.2 49.9634 16.02 49.9634 17.02V25H45.2834V8.86001H49.7534V13.33L48.9134 11.98C49.4934 10.9 50.3234 10.07 51.4034 9.49001C52.4834 8.91001 53.7134 8.62001 55.0934 8.62001ZM72.1728 25.24C70.6528 25.24 69.2828 24.9 68.0628 24.22C66.8428 23.52 65.8728 22.55 65.1528 21.31C64.4528 20.07 64.1028 18.61 64.1028 16.93C64.1028 15.23 64.4528 13.76 65.1528 12.52C65.8728 11.28 66.8428 10.32 68.0628 9.64001C69.2828 8.96001 70.6528 8.62001 72.1728 8.62001C73.5328 8.62001 74.7228 8.92001 75.7428 9.52001C76.7628 10.12 77.5528 11.03 78.1128 12.25C78.6728 13.47 78.9528 15.03 78.9528 16.93C78.9528 18.81 78.6828 20.37 78.1428 21.61C77.6028 22.83 76.8228 23.74 75.8028 24.34C74.8028 24.94 73.5928 25.24 72.1728 25.24ZM72.9828 21.4C73.7428 21.4 74.4328 21.22 75.0528 20.86C75.6728 20.5 76.1628 19.99 76.5228 19.33C76.9028 18.65 77.0928 17.85 77.0928 16.93C77.0928 15.99 76.9028 15.19 76.5228 14.53C76.1628 13.87 75.6728 13.36 75.0528 13C74.4328 12.64 73.7428 12.46 72.9828 12.46C72.2028 12.46 71.5028 12.64 70.8828 13C70.2628 13.36 69.7628 13.87 69.3828 14.53C69.0228 15.19 68.8428 15.99 68.8428 16.93C68.8428 17.85 69.0228 18.65 69.3828 19.33C69.7628 19.99 70.2628 20.5 70.8828 20.86C71.5028 21.22 72.2028 21.4 72.9828 21.4ZM77.2128 25V21.7L77.3028 16.9L77.0028 12.13V2.74001H81.6828V25H77.2128ZM85.1143 25V8.86001H89.7943V25H85.1143ZM87.4543 6.61001C86.5943 6.61001 85.8943 6.36001 85.3543 5.86001C84.8143 5.36001 84.5443 4.74001 84.5443 4.00001C84.5443 3.26001 84.8143 2.64001 85.3543 2.14001C85.8943 1.64001 86.5943 1.39001 87.4543 1.39001C88.3143 1.39001 89.0143 1.63001 89.5543 2.11001C90.0943 2.57001 90.3643 3.17001 90.3643 3.91001C90.3643 4.69001 90.0943 5.34001 89.5543 5.86001C89.0343 6.36001 88.3343 6.61001 87.4543 6.61001ZM101.248 25.24C99.4077 25.24 97.7877 24.88 96.3877 24.16C95.0077 23.44 93.9377 22.46 93.1777 21.22C92.4177 19.96 92.0377 18.53 92.0377 16.93C92.0377 15.31 92.4077 13.88 93.1477 12.64C93.9077 11.38 94.9377 10.4 96.2377 9.70001C97.5377 8.98001 99.0077 8.62001 100.648 8.62001C102.228 8.62001 103.648 8.96001 104.908 9.64001C106.188 10.3 107.198 11.26 107.938 12.52C108.678 13.76 109.048 15.25 109.048 16.99C109.048 17.17 109.038 17.38 109.018 17.62C108.998 17.84 108.978 18.05 108.958 18.25H95.8477V15.52H106.498L104.698 16.33C104.698 15.49 104.528 14.76 104.188 14.14C103.848 13.52 103.378 13.04 102.778 12.7C102.178 12.34 101.478 12.16 100.678 12.16C99.8777 12.16 99.1677 12.34 98.5477 12.7C97.9477 13.04 97.4777 13.53 97.1377 14.17C96.7977 14.79 96.6277 15.53 96.6277 16.39V17.11C96.6277 17.99 96.8177 18.77 97.1977 19.45C97.5977 20.11 98.1477 20.62 98.8477 20.98C99.5677 21.32 100.408 21.49 101.368 21.49C102.228 21.49 102.978 21.36 103.618 21.1C104.278 20.84 104.878 20.45 105.418 19.93L107.908 22.63C107.168 23.47 106.238 24.12 105.118 24.58C103.998 25.02 102.708 25.24 101.248 25.24ZM118.854 31.06C117.334 31.06 115.864 30.87 114.444 30.49C113.044 30.13 111.874 29.58 110.934 28.84L112.794 25.48C113.474 26.04 114.334 26.48 115.374 26.8C116.434 27.14 117.474 27.31 118.494 27.31C120.154 27.31 121.354 26.94 122.094 26.2C122.854 25.46 123.234 24.36 123.234 22.9V20.47L123.534 16.42L123.474 12.34V8.86001H127.914V22.3C127.914 25.3 127.134 27.51 125.574 28.93C124.014 30.35 121.774 31.06 118.854 31.06ZM118.134 24.22C116.634 24.22 115.274 23.9 114.054 23.26C112.854 22.6 111.884 21.69 111.144 20.53C110.424 19.35 110.064 17.98 110.064 16.42C110.064 14.84 110.424 13.47 111.144 12.31C111.884 11.13 112.854 10.22 114.054 9.58001C115.274 8.94001 116.634 8.62001 118.134 8.62001C119.494 8.62001 120.694 8.90001 121.734 9.46001C122.774 10 123.584 10.85 124.164 12.01C124.744 13.15 125.034 14.62 125.034 16.42C125.034 18.2 124.744 19.67 124.164 20.83C123.584 21.97 122.774 22.82 121.734 23.38C120.694 23.94 119.494 24.22 118.134 24.22ZM119.064 20.38C119.884 20.38 120.614 20.22 121.254 19.9C121.894 19.56 122.394 19.09 122.754 18.49C123.114 17.89 123.294 17.2 123.294 16.42C123.294 15.62 123.114 14.93 122.754 14.35C122.394 13.75 121.894 13.29 121.254 12.97C120.614 12.63 119.884 12.46 119.064 12.46C118.244 12.46 117.514 12.63 116.874 12.97C116.234 13.29 115.724 13.75 115.344 14.35C114.984 14.93 114.804 15.62 114.804 16.42C114.804 17.2 114.984 17.89 115.344 18.49C115.724 19.09 116.234 19.56 116.874 19.9C117.514 20.22 118.244 20.38 119.064 20.38ZM139.049 25.24C137.329 25.24 135.799 24.88 134.459 24.16C133.139 23.44 132.089 22.46 131.309 21.22C130.549 19.96 130.169 18.53 130.169 16.93C130.169 15.31 130.549 13.88 131.309 12.64C132.089 11.38 133.139 10.4 134.459 9.70001C135.799 8.98001 137.329 8.62001 139.049 8.62001C140.749 8.62001 142.269 8.98001 143.609 9.70001C144.949 10.4 145.999 11.37 146.759 12.61C147.519 13.85 147.899 15.29 147.899 16.93C147.899 18.53 147.519 19.96 146.759 21.22C145.999 22.46 144.949 23.44 143.609 24.16C142.269 24.88 140.749 25.24 139.049 25.24ZM139.049 21.4C139.829 21.4 140.529 21.22 141.149 20.86C141.769 20.5 142.259 19.99 142.619 19.33C142.979 18.65 143.159 17.85 143.159 16.93C143.159 15.99 142.979 15.19 142.619 14.53C142.259 13.87 141.769 13.36 141.149 13C140.529 12.64 139.829 12.46 139.049 12.46C138.269 12.46 137.569 12.64 136.949 13C136.329 13.36 135.829 13.87 135.449 14.53C135.089 15.19 134.909 15.99 134.909 16.93C134.909 17.85 135.089 18.65 135.449 19.33C135.829 19.99 136.329 20.5 136.949 20.86C137.569 21.22 138.269 21.4 139.049 21.4Z" fill="#5483E8"/>
<path d="M39.5 7C41.433 7 43 5.433 43 3.5C43 1.567 41.433 0 39.5 0C37.567 0 36 1.567 36 3.5C36 5.433 37.567 7 39.5 7Z" fill="#EBBB82"/>
<path d="M151.5 28C153.433 28 155 26.433 155 24.5C155 22.567 153.433 21 151.5 21C149.567 21 148 22.567 148 24.5C148 26.433 149.567 28 151.5 28Z" fill="#EBBB82"/>
</svg>
