<svg width="119" height="67" viewBox="0 0 119 67" fill="none" xmlns="http://www.w3.org/2000/svg">
<path d="M68.75 0C69.0815 0 69.3995 0.1317 69.6339 0.36612C69.8683 0.60054 70 0.91848 70 1.25V8.125C69.1712 8.125 68.3763 8.4542 67.7903 9.0403C67.2042 9.6263 66.875 10.4212 66.875 11.25C66.875 12.0788 67.2042 12.8737 67.7903 13.4597C68.3763 14.0458 69.1712 14.375 70 14.375V21.25C70 21.5815 69.8683 21.8995 69.6339 22.1339C69.3995 22.3683 69.0815 22.5 68.75 22.5H46.25C45.9185 22.5 45.6005 22.3683 45.3661 22.1339C45.1317 21.8995 45 21.5815 45 21.25V14.375C45.8288 14.375 46.6237 14.0458 47.2097 13.4597C47.7958 12.8737 48.125 12.0788 48.125 11.25C48.125 10.4212 47.7958 9.6263 47.2097 9.0403C46.6237 8.4542 45.8288 8.125 45 8.125V1.25C45 0.91848 45.1317 0.60054 45.3661 0.36612C45.6005 0.1317 45.9185 0 46.25 0H68.75Z" fill="#5483E8"/>
<path d="M57.5 5C58.3284 5 59 4.32843 59 3.5C59 2.67157 58.3284 2 57.5 2C56.6716 2 56 2.67157 56 3.5C56 4.32843 56.6716 5 57.5 5Z" fill="#EBBB82"/>
<path d="M57.5 20.5C58.3284 20.5 59 19.8284 59 19C59 18.1716 58.3284 17.5 57.5 17.5C56.6716 17.5 56 18.1716 56 19C56 19.8284 56.6716 20.5 57.5 20.5Z" fill="#EBBB82"/>
<path d="M58.59 8H56.45V15H58.59V8Z" fill="white"/>
<path d="M1.15997 60V43.86H5.83997V60H1.15997ZM3.49997 41.61C2.63997 41.61 1.93997 41.36 1.39997 40.86C0.859967 40.36 0.589966 39.74 0.589966 39C0.589966 38.26 0.859967 37.64 1.39997 37.14C1.93997 36.64 2.63997 36.39 3.49997 36.39C4.35997 36.39 5.05996 36.63 5.59996 37.11C6.13996 37.57 6.40997 38.17 6.40997 38.91C6.40997 39.69 6.13996 40.34 5.59996 40.86C5.07996 41.36 4.37997 41.61 3.49997 41.61ZM19.0934 43.62C20.3734 43.62 21.5134 43.88 22.5134 44.4C23.5334 44.9 24.3334 45.68 24.9134 46.74C25.4934 47.78 25.7834 49.12 25.7834 50.76V60H21.1034V51.48C21.1034 50.18 20.8134 49.22 20.2334 48.6C19.6734 47.98 18.8734 47.67 17.8334 47.67C17.0934 47.67 16.4234 47.83 15.8234 48.15C15.2434 48.45 14.7834 48.92 14.4434 49.56C14.1234 50.2 13.9634 51.02 13.9634 52.02V60H9.28337V43.86H13.7534V48.33L12.9134 46.98C13.4934 45.9 14.3234 45.07 15.4034 44.49C16.4834 43.91 17.7134 43.62 19.0934 43.62ZM36.1728 60.24C34.6528 60.24 33.2828 59.9 32.0628 59.22C30.8428 58.52 29.8728 57.55 29.1528 56.31C28.4528 55.07 28.1028 53.61 28.1028 51.93C28.1028 50.23 28.4528 48.76 29.1528 47.52C29.8728 46.28 30.8428 45.32 32.0628 44.64C33.2828 43.96 34.6528 43.62 36.1728 43.62C37.5328 43.62 38.7228 43.92 39.7428 44.52C40.7628 45.12 41.5528 46.03 42.1128 47.25C42.6728 48.47 42.9528 50.03 42.9528 51.93C42.9528 53.81 42.6828 55.37 42.1428 56.61C41.6028 57.83 40.8228 58.74 39.8028 59.34C38.8028 59.94 37.5928 60.24 36.1728 60.24ZM36.9828 56.4C37.7428 56.4 38.4328 56.22 39.0528 55.86C39.6728 55.5 40.1628 54.99 40.5228 54.33C40.9028 53.65 41.0928 52.85 41.0928 51.93C41.0928 50.99 40.9028 50.19 40.5228 49.53C40.1628 48.87 39.6728 48.36 39.0528 48C38.4328 47.64 37.7428 47.46 36.9828 47.46C36.2028 47.46 35.5028 47.64 34.8828 48C34.2628 48.36 33.7628 48.87 33.3828 49.53C33.0228 50.19 32.8428 50.99 32.8428 51.93C32.8428 52.85 33.0228 53.65 33.3828 54.33C33.7628 54.99 34.2628 55.5 34.8828 55.86C35.5028 56.22 36.2028 56.4 36.9828 56.4ZM41.2128 60V56.7L41.3028 51.9L41.0028 47.13V37.74H45.6828V60H41.2128ZM49.1143 60V43.86H53.7943V60H49.1143ZM51.4543 41.61C50.5943 41.61 49.8943 41.36 49.3543 40.86C48.8143 40.36 48.5443 39.74 48.5443 39C48.5443 38.26 48.8143 37.64 49.3543 37.14C49.8943 36.64 50.5943 36.39 51.4543 36.39C52.3143 36.39 53.0143 36.63 53.5543 37.11C54.0943 37.57 54.3643 38.17 54.3643 38.91C54.3643 39.69 54.0943 40.34 53.5543 40.86C53.0343 41.36 52.3343 41.61 51.4543 41.61ZM65.2477 60.24C63.4077 60.24 61.7877 59.88 60.3877 59.16C59.0077 58.44 57.9377 57.46 57.1777 56.22C56.4177 54.96 56.0377 53.53 56.0377 51.93C56.0377 50.31 56.4077 48.88 57.1477 47.64C57.9077 46.38 58.9377 45.4 60.2377 44.7C61.5377 43.98 63.0077 43.62 64.6477 43.62C66.228 43.62 67.648 43.96 68.908 44.64C70.188 45.3 71.198 46.26 71.938 47.52C72.678 48.76 73.048 50.25 73.048 51.99C73.048 52.17 73.038 52.38 73.018 52.62C72.998 52.84 72.978 53.05 72.958 53.25H59.8477V50.52H70.498L68.698 51.33C68.698 50.49 68.528 49.76 68.188 49.14C67.848 48.52 67.378 48.04 66.778 47.7C66.178 47.34 65.4777 47.16 64.6777 47.16C63.8777 47.16 63.1677 47.34 62.5477 47.7C61.9477 48.04 61.4777 48.53 61.1377 49.17C60.7977 49.79 60.6277 50.53 60.6277 51.39V52.11C60.6277 52.99 60.8177 53.77 61.1977 54.45C61.5977 55.11 62.1477 55.62 62.8477 55.98C63.5677 56.32 64.4077 56.49 65.3677 56.49C66.228 56.49 66.978 56.36 67.618 56.1C68.278 55.84 68.878 55.45 69.418 54.93L71.908 57.63C71.168 58.47 70.238 59.12 69.118 59.58C67.998 60.02 66.708 60.24 65.2477 60.24ZM82.854 66.06C81.334 66.06 79.864 65.87 78.444 65.49C77.044 65.13 75.874 64.58 74.934 63.84L76.794 60.48C77.474 61.04 78.334 61.48 79.374 61.8C80.434 62.14 81.474 62.31 82.494 62.31C84.154 62.31 85.354 61.94 86.094 61.2C86.854 60.46 87.234 59.36 87.234 57.9V55.47L87.534 51.42L87.474 47.34V43.86H91.914V57.3C91.914 60.3 91.134 62.51 89.574 63.93C88.014 65.35 85.774 66.06 82.854 66.06ZM82.134 59.22C80.634 59.22 79.274 58.9 78.054 58.26C76.854 57.6 75.884 56.69 75.144 55.53C74.424 54.35 74.064 52.98 74.064 51.42C74.064 49.84 74.424 48.47 75.144 47.31C75.884 46.13 76.854 45.22 78.054 44.58C79.274 43.94 80.634 43.62 82.134 43.62C83.494 43.62 84.694 43.9 85.734 44.46C86.774 45 87.584 45.85 88.164 47.01C88.744 48.15 89.034 49.62 89.034 51.42C89.034 53.2 88.744 54.67 88.164 55.83C87.584 56.97 86.774 57.82 85.734 58.38C84.694 58.94 83.494 59.22 82.134 59.22ZM83.064 55.38C83.884 55.38 84.614 55.22 85.254 54.9C85.894 54.56 86.394 54.09 86.754 53.49C87.114 52.89 87.294 52.2 87.294 51.42C87.294 50.62 87.114 49.93 86.754 49.35C86.394 48.75 85.894 48.29 85.254 47.97C84.614 47.63 83.884 47.46 83.064 47.46C82.244 47.46 81.514 47.63 80.874 47.97C80.234 48.29 79.724 48.75 79.344 49.35C78.984 49.93 78.804 50.62 78.804 51.42C78.804 52.2 78.984 52.89 79.344 53.49C79.724 54.09 80.234 54.56 80.874 54.9C81.514 55.22 82.244 55.38 83.064 55.38ZM103.049 60.24C101.329 60.24 99.799 59.88 98.459 59.16C97.139 58.44 96.089 57.46 95.309 56.22C94.549 54.96 94.169 53.53 94.169 51.93C94.169 50.31 94.549 48.88 95.309 47.64C96.089 46.38 97.139 45.4 98.459 44.7C99.799 43.98 101.329 43.62 103.049 43.62C104.749 43.62 106.269 43.98 107.609 44.7C108.949 45.4 109.999 46.37 110.759 47.61C111.519 48.85 111.899 50.29 111.899 51.93C111.899 53.53 111.519 54.96 110.759 56.22C109.999 57.46 108.949 58.44 107.609 59.16C106.269 59.88 104.749 60.24 103.049 60.24ZM103.049 56.4C103.829 56.4 104.529 56.22 105.149 55.86C105.769 55.5 106.259 54.99 106.619 54.33C106.979 53.65 107.159 52.85 107.159 51.93C107.159 50.99 106.979 50.19 106.619 49.53C106.259 48.87 105.769 48.36 105.149 48C104.529 47.64 103.829 47.46 103.049 47.46C102.269 47.46 101.569 47.64 100.949 48C100.329 48.36 99.829 48.87 99.449 49.53C99.089 50.19 98.909 50.99 98.909 51.93C98.909 52.85 99.089 53.65 99.449 54.33C99.829 54.99 100.329 55.5 100.949 55.86C101.569 56.22 102.269 56.4 103.049 56.4Z" fill="#5483E8"/>
<path d="M3.5 42C5.433 42 7 40.433 7 38.5C7 36.567 5.433 35 3.5 35C1.567 35 0 36.567 0 38.5C0 40.433 1.567 42 3.5 42Z" fill="#EBBB82"/>
<path d="M115.5 63C117.433 63 119 61.433 119 59.5C119 57.567 117.433 56 115.5 56C113.567 56 112 57.567 112 59.5C112 61.433 113.567 63 115.5 63Z" fill="#EBBB82"/>
</svg>
