<svg viewBox="0 0 119 32" fill="none" xmlns="http://www.w3.org/2000/svg">
<path d="M1.15997 25V8.86001H5.83997V25H1.15997ZM3.49997 6.61001C2.63997 6.61001 1.93997 6.36001 1.39997 5.86001C0.859967 5.36001 0.589966 4.74001 0.589966 4.00001C0.589966 3.26001 0.859967 2.64001 1.39997 2.14001C1.93997 1.64001 2.63997 1.39001 3.49997 1.39001C4.35997 1.39001 5.05996 1.63001 5.59996 2.11001C6.13996 2.57001 6.40997 3.17001 6.40997 3.91001C6.40997 4.69001 6.13996 5.34001 5.59996 5.86001C5.07996 6.36001 4.37997 6.61001 3.49997 6.61001ZM19.0934 8.62001C20.3734 8.62001 21.5134 8.88001 22.5134 9.40001C23.5334 9.90001 24.3334 10.68 24.9134 11.74C25.4934 12.78 25.7834 14.12 25.7834 15.76V25H21.1034V16.48C21.1034 15.18 20.8134 14.22 20.2334 13.6C19.6734 12.98 18.8734 12.67 17.8334 12.67C17.0934 12.67 16.4234 12.83 15.8234 13.15C15.2434 13.45 14.7834 13.92 14.4434 14.56C14.1234 15.2 13.9634 16.02 13.9634 17.02V25H9.28337V8.86001H13.7534V13.33L12.9134 11.98C13.4934 10.9 14.3234 10.07 15.4034 9.49001C16.4834 8.91001 17.7134 8.62001 19.0934 8.62001ZM36.1728 25.24C34.6528 25.24 33.2828 24.9 32.0628 24.22C30.8428 23.52 29.8728 22.55 29.1528 21.31C28.4528 20.07 28.1028 18.61 28.1028 16.93C28.1028 15.23 28.4528 13.76 29.1528 12.52C29.8728 11.28 30.8428 10.32 32.0628 9.64001C33.2828 8.96001 34.6528 8.62001 36.1728 8.62001C37.5328 8.62001 38.7228 8.92001 39.7428 9.52001C40.7628 10.12 41.5528 11.03 42.1128 12.25C42.6728 13.47 42.9528 15.03 42.9528 16.93C42.9528 18.81 42.6828 20.37 42.1428 21.61C41.6028 22.83 40.8228 23.74 39.8028 24.34C38.8028 24.94 37.5928 25.24 36.1728 25.24ZM36.9828 21.4C37.7428 21.4 38.4328 21.22 39.0528 20.86C39.6728 20.5 40.1628 19.99 40.5228 19.33C40.9028 18.65 41.0928 17.85 41.0928 16.93C41.0928 15.99 40.9028 15.19 40.5228 14.53C40.1628 13.87 39.6728 13.36 39.0528 13C38.4328 12.64 37.7428 12.46 36.9828 12.46C36.2028 12.46 35.5028 12.64 34.8828 13C34.2628 13.36 33.7628 13.87 33.3828 14.53C33.0228 15.19 32.8428 15.99 32.8428 16.93C32.8428 17.85 33.0228 18.65 33.3828 19.33C33.7628 19.99 34.2628 20.5 34.8828 20.86C35.5028 21.22 36.2028 21.4 36.9828 21.4ZM41.2128 25V21.7L41.3028 16.9L41.0028 12.13V2.74001H45.6828V25H41.2128ZM49.1143 25V8.86001H53.7943V25H49.1143ZM51.4543 6.61001C50.5943 6.61001 49.8943 6.36001 49.3543 5.86001C48.8143 5.36001 48.5443 4.74001 48.5443 4.00001C48.5443 3.26001 48.8143 2.64001 49.3543 2.14001C49.8943 1.64001 50.5943 1.39001 51.4543 1.39001C52.3143 1.39001 53.0143 1.63001 53.5543 2.11001C54.0943 2.57001 54.3643 3.17001 54.3643 3.91001C54.3643 4.69001 54.0943 5.34001 53.5543 5.86001C53.0343 6.36001 52.3343 6.61001 51.4543 6.61001ZM65.2477 25.24C63.4077 25.24 61.7877 24.88 60.3877 24.16C59.0077 23.44 57.9377 22.46 57.1777 21.22C56.4177 19.96 56.0377 18.53 56.0377 16.93C56.0377 15.31 56.4077 13.88 57.1477 12.64C57.9077 11.38 58.9377 10.4 60.2377 9.70001C61.5377 8.98001 63.0077 8.62001 64.6477 8.62001C66.228 8.62001 67.648 8.96001 68.908 9.64001C70.188 10.3 71.198 11.26 71.938 12.52C72.678 13.76 73.048 15.25 73.048 16.99C73.048 17.17 73.038 17.38 73.018 17.62C72.998 17.84 72.978 18.05 72.958 18.25H59.8477V15.52H70.498L68.698 16.33C68.698 15.49 68.528 14.76 68.188 14.14C67.848 13.52 67.378 13.04 66.778 12.7C66.178 12.34 65.4777 12.16 64.6777 12.16C63.8777 12.16 63.1677 12.34 62.5477 12.7C61.9477 13.04 61.4777 13.53 61.1377 14.17C60.7977 14.79 60.6277 15.53 60.6277 16.39V17.11C60.6277 17.99 60.8177 18.77 61.1977 19.45C61.5977 20.11 62.1477 20.62 62.8477 20.98C63.5677 21.32 64.4077 21.49 65.3677 21.49C66.228 21.49 66.978 21.36 67.618 21.1C68.278 20.84 68.878 20.45 69.418 19.93L71.908 22.63C71.168 23.47 70.238 24.12 69.118 24.58C67.998 25.02 66.708 25.24 65.2477 25.24ZM82.854 31.06C81.334 31.06 79.864 30.87 78.444 30.49C77.044 30.13 75.874 29.58 74.934 28.84L76.794 25.48C77.474 26.04 78.334 26.48 79.374 26.8C80.434 27.14 81.474 27.31 82.494 27.31C84.154 27.31 85.354 26.94 86.094 26.2C86.854 25.46 87.234 24.36 87.234 22.9V20.47L87.534 16.42L87.474 12.34V8.86001H91.914V22.3C91.914 25.3 91.134 27.51 89.574 28.93C88.014 30.35 85.774 31.06 82.854 31.06ZM82.134 24.22C80.634 24.22 79.274 23.9 78.054 23.26C76.854 22.6 75.884 21.69 75.144 20.53C74.424 19.35 74.064 17.98 74.064 16.42C74.064 14.84 74.424 13.47 75.144 12.31C75.884 11.13 76.854 10.22 78.054 9.58001C79.274 8.94001 80.634 8.62001 82.134 8.62001C83.494 8.62001 84.694 8.90001 85.734 9.46001C86.774 10 87.584 10.85 88.164 12.01C88.744 13.15 89.034 14.62 89.034 16.42C89.034 18.2 88.744 19.67 88.164 20.83C87.584 21.97 86.774 22.82 85.734 23.38C84.694 23.94 83.494 24.22 82.134 24.22ZM83.064 20.38C83.884 20.38 84.614 20.22 85.254 19.9C85.894 19.56 86.394 19.09 86.754 18.49C87.114 17.89 87.294 17.2 87.294 16.42C87.294 15.62 87.114 14.93 86.754 14.35C86.394 13.75 85.894 13.29 85.254 12.97C84.614 12.63 83.884 12.46 83.064 12.46C82.244 12.46 81.514 12.63 80.874 12.97C80.234 13.29 79.724 13.75 79.344 14.35C78.984 14.93 78.804 15.62 78.804 16.42C78.804 17.2 78.984 17.89 79.344 18.49C79.724 19.09 80.234 19.56 80.874 19.9C81.514 20.22 82.244 20.38 83.064 20.38ZM103.049 25.24C101.329 25.24 99.799 24.88 98.459 24.16C97.139 23.44 96.089 22.46 95.309 21.22C94.549 19.96 94.169 18.53 94.169 16.93C94.169 15.31 94.549 13.88 95.309 12.64C96.089 11.38 97.139 10.4 98.459 9.70001C99.799 8.98001 101.329 8.62001 103.049 8.62001C104.749 8.62001 106.269 8.98001 107.609 9.70001C108.949 10.4 109.999 11.37 110.759 12.61C111.519 13.85 111.899 15.29 111.899 16.93C111.899 18.53 111.519 19.96 110.759 21.22C109.999 22.46 108.949 23.44 107.609 24.16C106.269 24.88 104.749 25.24 103.049 25.24ZM103.049 21.4C103.829 21.4 104.529 21.22 105.149 20.86C105.769 20.5 106.259 19.99 106.619 19.33C106.979 18.65 107.159 17.85 107.159 16.93C107.159 15.99 106.979 15.19 106.619 14.53C106.259 13.87 105.769 13.36 105.149 13C104.529 12.64 103.829 12.46 103.049 12.46C102.269 12.46 101.569 12.64 100.949 13C100.329 13.36 99.829 13.87 99.449 14.53C99.089 15.19 98.909 15.99 98.909 16.93C98.909 17.85 99.089 18.65 99.449 19.33C99.829 19.99 100.329 20.5 100.949 20.86C101.569 21.22 102.269 21.4 103.049 21.4Z" fill="#5483E8"/>
<path d="M3.5 7C5.433 7 7 5.433 7 3.5C7 1.567 5.433 0 3.5 0C1.567 0 0 1.567 0 3.5C0 5.433 1.567 7 3.5 7Z" fill="#EBBB82"/>
<path d="M115.5 28C117.433 28 119 26.433 119 24.5C119 22.567 117.433 21 115.5 21C113.567 21 112 22.567 112 24.5C112 26.433 113.567 28 115.5 28Z" fill="#EBBB82"/>
</svg>
